<?xml version="1.0" ?><svg data-name="Layer 1" id="Layer_1" viewBox="0 0 512 512" xmlns="http://www.w3.org/2000/svg"><title/><rect fill="#fff" height="412.22" rx="55.43" width="412.22" x="49.89" y="49.89"/><polygon fill="none" points="216.4 295.05 295.64 295.06 256.02 226.43 216.4 295.05"/><path d="M216.4,295.05,256,226.43l-46.28-80.16a7.14,7.14,0,0,1-.46-1.12A22,22,0,0,0,208,147l-84,145.42a24.45,24.45,0,0,0-1.39,2.87,6.86,6.86,0,0,1,2-.27Z" fill="#4eaa4c"/><path d="M167.26,376.08a22.56,22.56,0,0,1-7.3-2.4A7,7,0,0,0,167.26,376.08Z" fill="#3b5998"/><path d="M256,226.43l39.62,68.63h90.55a7,7,0,0,1,3.39.88,22.47,22.47,0,0,0-1.6-3.5L304,147a22,22,0,0,0-1.26-1.88,7.14,7.14,0,0,1-.46,1.12Z" fill="#f6bd41"/><path d="M256,226.43l46.28-80.16a7.14,7.14,0,0,0,.46-1.12,22.69,22.69,0,0,0-18.42-9.48H227.7a22.69,22.69,0,0,0-18.42,9.48,7.14,7.14,0,0,0,.46,1.12Z" fill="#39812f"/><path d="M340.52,372.8l-44.88-77.74H216.4L171.51,372.8a7,7,0,0,1-4.25,3.28,22.78,22.78,0,0,0,3.21.24H338.39a22.66,22.66,0,0,0,5.35-.67A6.92,6.92,0,0,1,340.52,372.8Z" fill="#3686f7"/><path d="M171.51,372.8l44.89-77.75H124.62a6.86,6.86,0,0,0-2,.27,22.73,22.73,0,0,0,1.68,20.34l35,57.29a6.14,6.14,0,0,0,.6.73,22.56,22.56,0,0,0,7.3,2.4A7,7,0,0,0,171.51,372.8Z" fill="#2567d6"/><path d="M389.58,296a7,7,0,0,0-3.39-.88H295.64l44.88,77.74a6.92,6.92,0,0,0,3.22,2.86,22.66,22.66,0,0,0,11.45-6.82l11.71-19.16L390.36,309A22.68,22.68,0,0,0,389.58,296Z" fill="#ec513e"/></svg>